<?xml version="1.0" encoding="UTF-8" standalone="no"?>
<!-- Created with Inkscape (http://www.inkscape.org/) -->

<svg
   xmlns:dc="http://purl.org/dc/elements/1.1/"
   xmlns:cc="http://creativecommons.org/ns#"
   xmlns:rdf="http://www.w3.org/1999/02/22-rdf-syntax-ns#"
   xmlns:svg="http://www.w3.org/2000/svg"
   xmlns="http://www.w3.org/2000/svg"
   xmlns:sodipodi="http://sodipodi.sourceforge.net/DTD/sodipodi-0.dtd"
   xmlns:inkscape="http://www.inkscape.org/namespaces/inkscape"
   width="400"
   height="400"
   viewBox="0 0 105.83333 105.83334"
   version="1.1"
   id="svg8"
   inkscape:version="0.92.3 (2405546, 2018-03-11)"
   sodipodi:docname="fire.svg"
   inkscape:export-filename="D:\programs\ludum-dare-43\resource\fire.png"
   inkscape:export-xdpi="28.799999"
   inkscape:export-ydpi="28.799999">
  <defs
     id="defs2" />
  <sodipodi:namedview
     id="base"
     pagecolor="#ffffff"
     bordercolor="#666666"
     borderopacity="1.0"
     inkscape:pageopacity="0.0"
     inkscape:pageshadow="2"
     inkscape:zoom="1.4778532"
     inkscape:cx="141.44834"
     inkscape:cy="280.79141"
     inkscape:document-units="px"
     inkscape:current-layer="layer1"
     showgrid="false"
     units="px"
     inkscape:window-width="1920"
     inkscape:window-height="1017"
     inkscape:window-x="-8"
     inkscape:window-y="-8"
     inkscape:window-maximized="1"
     inkscape:snap-bbox="true"
     inkscape:bbox-paths="true"
     inkscape:bbox-nodes="true"
     inkscape:snap-bbox-edge-midpoints="true"
     inkscape:snap-bbox-midpoints="true"
     inkscape:object-paths="true"
     inkscape:snap-intersection-paths="true"
     inkscape:snap-smooth-nodes="true"
     inkscape:snap-midpoints="true"
     inkscape:snap-object-midpoints="true"
     inkscape:snap-center="true"
     inkscape:snap-page="true"
     inkscape:snap-text-baseline="true"
     showguides="true"
     inkscape:snap-global="false"
     inkscape:guide-bbox="true" />
  <metadata
     id="metadata5">
    <rdf:RDF>
      <cc:Work
         rdf:about="">
        <dc:format>image/svg+xml</dc:format>
        <dc:type
           rdf:resource="http://purl.org/dc/dcmitype/StillImage" />
        <dc:title></dc:title>
      </cc:Work>
    </rdf:RDF>
  </metadata>
  <g
     inkscape:label="Layer 1"
     inkscape:groupmode="layer"
     id="layer1"
     transform="translate(0,-191.16665)">
    <path
       style="fill:#e86464;fill-opacity:1;stroke:#000000;stroke-width:0.52916667;stroke-linecap:butt;stroke-linejoin:miter;stroke-opacity:1;stroke-miterlimit:4;stroke-dasharray:none"
       d="m 12.532256,262.44677 c 5.088975,15.22316 13.867863,29.19493 41.535474,29.00321 27.667611,-0.19171 36.030496,-11.97996 40.461284,-28.82418 4.43079,-16.84423 -10.697995,-40.93495 -17.187093,-48.8758 0.493631,8.72403 2.55252,17.24569 -1.969357,37.7758 5.156326,-25.03674 -5.92153,-41.15901 -21.304833,-51.38225 -20.522088,6.7767 -27.445166,20.11301 -26.138703,37.2387 -2.770767,-9.73423 -2.116684,-14.38859 -0.716129,-22.55806 -7.710462,6.43308 -19.7696184,32.39942 -14.680643,47.62258 z"
       id="path836"
       inkscape:connector-curvature="0"
       sodipodi:nodetypes="zzzcccccz" />
    <path
       sodipodi:nodetypes="zzzcccccz"
       inkscape:connector-curvature="0"
       id="path838"
       d="m 20.409674,270.86128 c 4.982662,15.11685 16.553346,20.60139 33.658056,20.5887 17.10471,-0.0127 26.183722,-9.11543 30.077415,-16.29192 3.893693,-7.17649 2.729421,-16.40754 -1.61129,-25.78065 0.493631,8.72403 -7.115219,11.69569 -10.562903,19.15645 0.322456,-23.78351 -5.026369,-31.31224 -20.409672,-41.53548 -14.614025,11.96864 -16.524201,24.94688 -16.112899,41.71451 -7.028075,-8.00676 -8.484064,-14.94774 -11.27903,-22.73709 0,0 -8.74234,9.76863 -3.759677,24.88548 z"
       style="fill:#e8a764;fill-opacity:1;stroke:#000000;stroke-width:0.52916667;stroke-linecap:butt;stroke-linejoin:miter;stroke-opacity:1;stroke-miterlimit:4;stroke-dasharray:none" />
  </g>
</svg>
